<svg xmlns="http://www.w3.org/2000/svg" width="892" height="330" viewBox="0 0 892 330" fill="none"><g clip-path="url(#clip0_2_19)"><path d="M516.76 54.355C610.53 0.214993 711.78 0.024991 742.9 53.925C745.91 59.135 748.15 64.645 749.66 70.425" stroke="white" stroke-width="4.92" stroke-miterlimit="10"></path><path d="M681.51 213.175C665.09 228.165 645.98 242.205 624.65 254.525C530.88 308.665 429.63 308.855 398.51 254.955C388.47 237.565 386.96 216.675 392.66 194.525" stroke="white" stroke-width="4.92" stroke-miterlimit="10"></path><path d="M545.61 254.555C563.21 258.605 574.2 276.145 570.16 293.755C566.11 311.355 548.57 322.345 530.96 318.305C513.36 314.255 502.37 296.715 506.41 279.105C510.46 261.505 528 250.515 545.61 254.555Z" fill="white"></path><path d="M100.76 143.685L100.54 148.585L18.72 148.365C20.28 168.875 31.87 181.585 53.27 181.585C68.21 181.585 77.79 175.345 82.25 161.745L97.86 169.775C91.17 185.605 78.02 198.315 52.61 198.315C14.49 198.305 0 169.995 0 143.465C0 116.935 14.04 89.075 51.5 89.075C88.96 89.075 102.11 115.605 100.77 143.695L100.76 143.685ZM19.62 132.095L81.37 132.315C80.03 114.035 68.66 105.785 51.94 105.785C33.44 105.785 22.74 115.815 19.61 132.095H19.62Z" fill="white"></path><path d="M156.05 161.745C161.62 174.005 167.64 181.585 188.6 181.585C200.42 181.585 210.67 179.135 210.67 166.645C210.67 155.275 201.98 154.385 186.15 151.265C166.53 147.475 146.69 142.345 146.69 120.275C146.69 99.545 164.08 89.065 185.48 89.065C208 89.065 222.71 100.435 228.95 117.605L213.34 125.635C208.88 114.935 203.09 105.795 185.03 105.795C173.44 105.795 165.19 109.585 165.19 120.285C165.19 128.315 169.65 130.765 186.37 134.105C205.76 137.895 229.17 141.685 229.17 166.655C229.17 189.175 210.67 198.315 186.14 198.315C162.95 198.315 146.9 186.945 140.44 169.775L156.05 161.745Z" fill="white"></path><path d="M372.06 143.685C372.06 168.435 358.46 198.305 324.13 198.305C308.08 198.305 297.38 191.835 290.47 182.695L291.14 247.345H272.64V91.295H284.01L291.59 103.555C298.5 94.865 308.98 89.065 324.14 89.065C358.47 89.065 372.07 118.715 372.07 143.685H372.06ZM353.56 143.685C353.56 120.495 342.19 105.785 322.57 105.785C302.95 105.785 288.68 120.275 288.68 144.795C288.68 167.085 302.95 181.575 322.57 181.575C342.19 181.575 353.56 166.865 353.56 143.675V143.685Z" fill="white"></path><path d="M507.6 179.355V196.075H409.06V179.355H448.96V108.015H413.51V91.295H467.46L467.68 179.355H507.58H507.6Z" fill="white"></path><path d="M639.12 132.315L638.9 196.075H620.4L620.62 137.225V132.325C620.62 126.525 620.62 105.795 596.54 105.795C569.34 105.795 567.56 132.545 567.56 148.595V196.075H549.73V91.295H561.1L569.35 104.445C576.93 93.745 587.85 89.065 599.89 89.065C623.52 89.065 639.13 106.675 639.13 132.315H639.12Z" fill="white"></path><path d="M680.58 142.565C680.58 116.925 695.07 89.065 730.29 89.065C765.51 89.065 780 116.935 780 142.565C780 170.435 765.51 198.295 730.29 198.295C695.07 198.295 680.58 170.425 680.58 142.565ZM761.51 142.565C761.51 120.275 750.36 105.785 730.3 105.785C710.24 105.785 699.09 120.275 699.09 142.565C699.09 167.085 710.24 181.575 730.3 181.575C750.36 181.575 761.51 167.085 761.51 142.565Z" fill="white"></path><path d="M818.04 161.745C823.61 174.005 829.63 181.585 850.59 181.585C862.41 181.585 872.66 179.135 872.66 166.645C872.66 155.275 863.97 154.385 848.14 151.265C828.52 147.475 808.68 142.345 808.68 120.275C808.68 99.545 826.07 89.065 847.47 89.065C869.99 89.065 884.7 100.435 890.94 117.605L875.33 125.635C870.87 114.935 865.08 105.795 847.02 105.795C835.43 105.795 827.18 109.585 827.18 120.285C827.18 128.315 831.64 130.765 848.36 134.105C867.75 137.895 891.16 141.685 891.16 166.655C891.16 189.175 872.66 198.315 848.13 198.315C824.94 198.315 808.89 186.945 802.43 169.775L818.04 161.745Z" fill="white"></path><path d="M495.9 55.055C505.66 57.295 511.75 67.025 509.51 76.785C507.27 86.545 497.54 92.635 487.78 90.395C478.02 88.155 471.93 78.425 474.17 68.665C476.41 58.905 486.14 52.815 495.9 55.055Z" fill="white"></path></g><defs><clipPath id="clip0_2_19"><rect width="891.16" height="329.67" fill="white"></rect></clipPath></defs></svg>